<svg width="144" height="116" viewBox="0 0 144 116" fill="none" xmlns="http://www.w3.org/2000/svg">
    <path
        d="M115.529 16.3095C114.904 17.0033 114.961 18.0718 115.654 18.6962L118.484 21.2425L115.654 23.7889C114.961 24.4133 114.904 25.4818 115.529 26.1756C116.153 26.8694 117.222 26.9256 117.916 26.3012L121.01 23.5162L124.104 26.3012C124.798 26.9256 125.867 26.8694 126.491 26.1756C127.116 25.4818 127.059 24.4133 126.366 23.7889L123.536 21.2425L126.366 18.6962C127.059 18.0718 127.116 17.0033 126.491 16.3095C125.867 15.6157 124.798 15.5595 124.104 16.1839L121.01 18.9689L117.916 16.1839C117.222 15.5595 116.153 15.6157 115.529 16.3095Z"
        fill="#767680" />
    <path fill-rule="evenodd" clip-rule="evenodd"
        d="M121.01 0.540039C109.354 0.540039 99.885 9.93019 99.885 21.537C99.885 30.177 105.133 37.5875 112.618 40.8116V46.17C112.618 46.8187 112.99 47.4101 113.574 47.6921C114.158 47.974 114.852 47.8967 115.36 47.4931L121.61 42.5257C132.99 42.2099 142.135 32.9439 142.135 21.537C142.135 9.93019 132.667 0.540039 121.01 0.540039ZM103.265 21.537C103.265 11.8179 111.199 3.92004 121.01 3.92004C130.821 3.92004 138.755 11.8179 138.755 21.537C138.755 31.2561 130.821 39.154 121.01 39.154C120.628 39.154 120.258 39.2833 119.959 39.5209L115.998 42.6682V39.6654C115.998 38.9555 115.555 38.3212 114.888 38.0778C108.096 35.5993 103.265 29.1221 103.265 21.537Z"
        fill="#767680" />
    <path
        d="M72.845 88.42C72.845 90.2868 71.3318 91.8 69.465 91.8C67.5983 91.8 66.085 90.2868 66.085 88.42C66.085 86.5533 67.5983 85.04 69.465 85.04C71.3318 85.04 72.845 86.5533 72.845 88.42Z"
        fill="#767680" />
    <path
        d="M94.815 91.8C96.6818 91.8 98.195 90.2868 98.195 88.42C98.195 86.5533 96.6818 85.04 94.815 85.04C92.9483 85.04 91.435 86.5533 91.435 88.42C91.435 90.2868 92.9483 91.8 94.815 91.8Z"
        fill="#767680" />
    <path
        d="M72.2887 75.1782C72.6018 75.8043 72.348 76.5657 71.7219 76.8787L64.9619 80.2587C64.3358 80.5718 63.5744 80.318 63.2614 79.6919C62.9483 79.0658 63.2021 78.3044 63.8282 77.9913L70.5882 74.6113C71.2143 74.2983 71.9757 74.5521 72.2887 75.1782Z"
        fill="#767680" />
    <path
        d="M92.5582 76.8787C91.9321 76.5657 91.6783 75.8043 91.9914 75.1782C92.3044 74.5521 93.0658 74.2983 93.6919 74.6113L100.452 77.9913C101.078 78.3044 101.332 79.0658 101.019 79.6919C100.706 80.318 99.9443 80.5718 99.3182 80.2587L92.5582 76.8787Z"
        fill="#767680" />
    <path
        d="M80.0275 96.025C80.0275 95.325 80.595 94.7575 81.295 94.7575H86.365C87.0651 94.7575 87.6325 95.325 87.6325 96.025C87.6325 96.7251 87.0651 97.2925 86.365 97.2925H81.295C80.595 97.2925 80.0275 96.7251 80.0275 96.025Z"
        fill="#767680" />
    <path fill-rule="evenodd" clip-rule="evenodd"
        d="M104.11 56.31V52.085C104.11 50.2183 102.597 48.705 100.73 48.705H58.1416C56.8059 48.705 55.5954 47.9184 55.0529 46.6978L53.4572 43.1073C52.9147 41.8867 51.7042 41.1 50.3685 41.1H29.1862C27.2133 41.1 25.6597 42.7829 25.817 44.7496L30.595 104.475C30.8767 107.573 32.6231 115.46 37.355 115.46H102.42C107.398 115.46 110.883 113.197 113.154 110.399C115.381 107.654 116.451 104.395 116.768 102.179L116.774 102.141L120.646 61.8653C120.933 58.8872 118.591 56.31 115.599 56.31H104.11ZM49.769 61.2196C49.8403 60.3567 50.5589 59.69 51.4501 59.69H115.599C116.597 59.69 117.377 60.5491 117.282 61.5418L113.417 101.738C113.163 103.466 112.29 106.1 110.529 108.269C108.801 110.4 106.23 112.08 102.42 112.08H42.3765C44.587 109.809 46.65 106.44 46.65 101.94C46.65 100.622 47.2245 92.8935 47.9119 84.1618C48.5944 75.4925 49.3753 65.9829 49.769 61.2196Z"
        fill="#767680" />
    <path
        d="M20.455 101.095C20.455 102.495 19.3201 103.63 17.92 103.63C16.52 103.63 15.385 102.495 15.385 101.095C15.385 99.695 16.52 98.56 17.92 98.56C19.3201 98.56 20.455 99.695 20.455 101.095Z"
        fill="#767680" />
    <path
        d="M141.29 90.11C142.69 90.11 143.825 88.9751 143.825 87.575C143.825 86.175 142.69 85.04 141.29 85.04C139.89 85.04 138.755 86.175 138.755 87.575C138.755 88.9751 139.89 90.11 141.29 90.11Z"
        fill="#767680" />
    <path
        d="M3.55505 74.9C3.55505 75.8334 2.79841 76.59 1.86505 76.59C0.931688 76.59 0.175049 75.8334 0.175049 74.9C0.175049 73.9667 0.931688 73.21 1.86505 73.21C2.79841 73.21 3.55505 73.9667 3.55505 74.9Z"
        fill="#767680" />
    <path
        d="M35.665 10.68C36.5984 10.68 37.355 9.9234 37.355 8.99004C37.355 8.05668 36.5984 7.30004 35.665 7.30004C34.7317 7.30004 33.975 8.05668 33.975 8.99004C33.975 9.9234 34.7317 10.68 35.665 10.68Z"
        fill="#767680" />
    <path
        d="M76.225 26.735C76.225 28.1351 75.0901 29.27 73.69 29.27C72.29 29.27 71.155 28.1351 71.155 26.735C71.155 25.335 72.29 24.2 73.69 24.2C75.0901 24.2 76.225 25.335 76.225 26.735Z"
        fill="#767680" />
    <path
        d="M131.15 108.7C133.483 108.7 135.375 106.808 135.375 104.475C135.375 102.142 133.483 100.25 131.15 100.25C128.817 100.25 126.925 102.142 126.925 104.475C126.925 106.808 128.817 108.7 131.15 108.7Z"
        fill="#767680" />
</svg>
