<svg version="1.0" xmlns="http://www.w3.org/2000/svg" width="100.000000pt" height="100.000000pt"
    viewBox="0 0 100.000000 100.000000" preserveAspectRatio="xMidYMid meet">

    <g transform="translate(0.000000,100.000000) scale(0.100000,-0.100000)" fill="#000000"
        stroke="none">
        <path d="M306 938 c-10 -14 -16 -44 -16 -80 0 -60 -9 -77 -59 -102 -42 -22
-110 -102 -138 -163 -84 -184 -66 -350 53 -482 51 -57 99 -79 192 -87 163 -14
331 48 457 167 119 113 171 242 140 344 -8 28 -15 81 -15 120 0 78 -37 205
-71 249 -31 39 -58 33 -118 -28 -52 -53 -53 -53 -93 -44 -22 5 -57 8 -78 6
-40 -2 -79 18 -157 83 -54 45 -75 48 -97 17z m71 -95 c-23 -7 -43 -13 -44 -13
-6 0 -3 77 3 83 4 3 24 -8 44 -26 l38 -32 -41 -12z m447 25 c31 -49 56 -151
56 -231 l0 -79 -26 5 c-40 7 -93 -11 -155 -55 -38 -26 -73 -42 -105 -46 -58
-8 -69 -35 -18 -40 39 -4 92 17 159 63 49 33 66 39 112 36 95 -5 55 -169 -72
-297 -78 -77 -178 -128 -295 -150 -162 -31 -262 -2 -330 94 -54 75 -74 146
-67 237 7 93 14 108 43 101 32 -9 42 14 15 36 l-23 18 26 42 c39 66 55 81 146
144 85 59 85 59 155 58 134 -3 155 -4 196 -13 38 -9 46 -7 77 17 l35 27 -7
-51 c-5 -43 -3 -55 15 -78 28 -36 58 -51 72 -37 8 8 2 20 -21 43 -19 17 -31
37 -27 45 3 8 5 41 5 74 0 62 10 73 34 37z" />
        <path d="M217 602 c-20 -22 -22 -43 -5 -60 19 -19 45 -14 67 15 20 24 20 27 5
45 -22 23 -46 23 -67 0z m14 -33 c-9 -22 -10 -22 -10 -3 -1 11 2 24 6 27 12
12 14 0 4 -24z" />
        <path d="M457 582 c-22 -24 -21 -38 3 -62 27 -27 62 -25 95 6 l29 27 -28 23
c-32 29 -77 31 -99 6z m23 -23 c-7 -11 -14 -18 -17 -15 -8 8 5 36 17 36 7 0 7
-6 0 -21z" />
        <path d="M157 462 c-22 -25 -21 -44 4 -76 29 -36 63 -34 105 8 42 42 43 61 3
75 -48 16 -94 13 -112 -7z" />
        <path d="M178 329 c-28 -16 -22 -26 26 -44 51 -19 187 -18 207 2 9 9 -5 11
-57 10 -56 -2 -76 2 -105 21 -41 25 -47 26 -71 11z" />
        <path d="M195 231 c-9 -16 46 -51 81 -51 51 0 42 25 -15 44 -58 19 -58 19 -66
7z" />
    </g>
</svg>
