<svg version="1.0" xmlns="http://www.w3.org/2000/svg" width="100.000000pt" height="100.000000pt"
    viewBox="0 0 100.000000 100.000000" preserveAspectRatio="xMidYMid meet">

    <g transform="translate(0.000000,100.000000) scale(0.100000,-0.100000)" fill="#000000"
        stroke="none">
        <path d="M212 909 c-47 -14 -109 -80 -122 -129 -7 -27 -10 -133 -8 -304 l3
-263 27 -40 c15 -22 44 -51 65 -64 38 -24 41 -24 318 -24 319 0 332 3 390 84
l30 43 0 286 c0 285 0 287 -24 325 -13 21 -42 50 -64 65 l-40 27 -271 2 c-154
1 -285 -2 -304 -8z m594 -55 c15 -11 37 -33 48 -48 20 -26 21 -43 24 -291 3
-297 1 -312 -64 -361 l-37 -29 -277 0 -277 0 -37 29 c-63 47 -66 65 -66 345 0
259 4 287 43 330 45 48 63 51 349 48 252 -2 268 -3 294 -23z" />
        <path d="M394 822 c-291 -104 -313 -493 -36 -629 49 -24 69 -28 142 -28 73 0
93 4 142 28 72 35 130 93 165 165 24 49 28 69 28 142 0 73 -4 93 -28 142 -57
117 -164 188 -290 195 -52 3 -86 -1 -123 -15z m240 -56 c105 -51 161 -144 161
-266 0 -85 -21 -142 -74 -203 -82 -92 -237 -121 -353 -64 -160 79 -215 278
-118 430 80 126 246 170 384 103z" />
        <path d="M433 750 c-14 -5 -23 -18 -23 -31 0 -23 85 -178 104 -191 19 -13 211
-9 224 4 38 38 -33 154 -123 200 -44 23 -148 33 -182 18z m152 -50 c52 -25 67
-37 99 -84 34 -50 33 -56 -6 -56 -26 0 -37 6 -50 30 -19 33 -86 69 -129 70
-18 0 -29 8 -37 25 -7 14 -12 28 -12 30 0 13 100 2 135 -15z m-5 -116 l25 -24
-36 0 c-28 0 -38 6 -53 31 l-19 32 29 -7 c16 -4 40 -18 54 -32z" />
        <path d="M303 668 c-43 -47 -58 -90 -58 -168 0 -78 15 -121 58 -168 39 -42 60
-30 116 67 28 49 51 94 51 101 0 7 -23 52 -51 101 -56 97 -77 109 -116 67z
m56 -44 c9 -21 8 -35 -6 -75 -17 -47 -17 -51 0 -98 14 -40 15 -54 6 -75 -7
-14 -16 -26 -20 -26 -17 0 -59 106 -59 150 0 44 42 150 59 150 4 0 13 -12 20
-26z m71 -124 c0 -4 -9 -18 -19 -31 l-19 -24 -7 28 c-4 15 -4 39 0 55 l7 27
19 -24 c10 -13 19 -27 19 -31z" />
        <path d="M514 472 c-19 -13 -104 -168 -104 -191 0 -30 42 -44 111 -38 66 6
122 32 165 79 56 59 78 120 52 146 -13 13 -205 17 -224 4z m75 -48 c-16 -20
-69 -47 -77 -40 -3 3 1 17 8 31 10 19 21 25 48 25 30 0 33 -2 21 -16z m121 7
c0 -12 -49 -83 -69 -99 -35 -29 -98 -52 -143 -52 -53 0 -53 -1 -36 35 8 17 19
25 37 25 43 1 110 37 129 70 13 24 24 30 50 30 17 0 32 -4 32 -9z" />
    </g>
</svg>
