<svg version="1.0" xmlns="http://www.w3.org/2000/svg" width="100.000000pt" height="100.000000pt"
    viewBox="0 0 100.000000 100.000000" preserveAspectRatio="xMidYMid meet">

    <g transform="translate(0.000000,100.000000) scale(0.100000,-0.100000)" fill="#000000"
        stroke="none">
        <path d="M188 873 c-20 -2 -42 -11 -50 -20 -19 -24 -26 -681 -6 -688 7 -2 175
-1 373 3 l360 7 2 315 c0 173 3 326 5 340 3 25 3 25 -98 31 -147 9 -543 17
-586 12z m356 -42 c53 0 81 -4 87 -12 6 -10 11 -10 23 0 11 9 27 11 53 5 21
-4 47 -7 57 -6 11 1 24 -3 29 -10 7 -10 10 -10 14 0 9 24 23 12 23 -22 0 -68
-11 -96 -36 -96 -26 0 -30 10 -12 28 6 6 8 15 4 19 -5 5 -15 -2 -23 -14 -15
-23 -17 -23 -284 -23 -232 0 -269 2 -269 15 0 8 -4 15 -9 15 -5 0 -11 -7 -15
-15 -9 -25 -26 -17 -26 13 0 43 12 102 20 102 5 0 6 -9 3 -20 -8 -29 12 -25
26 6 l12 26 122 -6 c67 -3 158 -5 201 -5z m209 -157 c31 -6 36 -10 32 -25 -8
-24 4 -24 21 -1 12 15 13 10 14 -35 0 -28 -4 -55 -10 -58 -15 -9 -12 -25 5
-25 13 0 15 -24 15 -160 l0 -160 -184 0 c-138 0 -186 3 -190 13 -5 10 -7 10
-12 0 -8 -18 -34 -16 -34 2 0 8 -4 15 -10 15 -5 0 -10 -7 -10 -15 0 -8 -6 -15
-12 -15 -7 0 -23 -3 -35 -6 -17 -5 -23 -2 -23 10 0 9 -4 16 -10 16 -5 0 -10
-7 -10 -15 0 -8 -4 -15 -10 -15 -5 0 -10 7 -10 15 0 19 -16 19 -24 0 -7 -19
-36 -19 -36 0 0 19 -16 19 -24 0 -7 -19 -36 -20 -36 -1 0 7 7 19 15 26 19 16
19 31 0 24 -21 -8 -19 16 3 32 16 13 16 13 0 14 -17 0 -18 16 -18 185 l0 185
278 0 c152 0 294 -3 315 -6z" />
        <path d="M310 759 c0 -5 5 -7 10 -4 6 3 10 8 10 11 0 2 -4 4 -10 4 -5 0 -10
-5 -10 -11z" />
        <path d="M247 633 c-11 -10 -8 -43 3 -43 6 0 10 7 10 15 0 9 10 15 26 15 14 0
23 4 19 10 -7 11 -48 14 -58 3z" />
        <path d="M635 630 c-4 -6 10 -10 36 -10 28 0 46 -6 55 -17 12 -16 13 -15 14
10 0 26 -2 27 -49 27 -28 0 -53 -4 -56 -10z" />
        <path d="M240 545 c0 -22 4 -25 40 -25 22 0 40 5 40 10 0 6 -13 10 -30 10 -20
0 -30 5 -30 15 0 8 -4 15 -10 15 -5 0 -10 -11 -10 -25z" />
        <path d="M720 555 c0 -11 -12 -15 -45 -15 -25 0 -45 -4 -45 -10 0 -5 25 -10
55 -10 52 0 55 1 55 25 0 14 -4 25 -10 25 -5 0 -10 -7 -10 -15z" />
        <path d="M180 479 c0 -5 5 -7 10 -4 6 3 10 8 10 11 0 2 -4 4 -10 4 -5 0 -10
-5 -10 -11z" />
        <path d="M395 470 c-3 -5 3 -10 14 -10 14 0 21 -6 21 -19 0 -18 17 -38 24 -30
2 2 1 19 -1 37 -4 25 -10 32 -29 32 -12 0 -26 -4 -29 -10z" />
        <path d="M510 439 c0 -24 4 -38 10 -34 6 3 10 17 10 31 0 19 5 24 25 24 14 0
25 5 25 10 0 6 -16 10 -35 10 -34 0 -35 -1 -35 -41z" />
        <path d="M230 435 c0 -19 5 -35 10 -35 6 0 10 11 10 25 0 18 5 25 19 25 11 0
23 5 26 10 4 6 -8 10 -29 10 -34 0 -36 -2 -36 -35z" />
        <path d="M680 460 c0 -5 11 -10 24 -10 17 0 26 -7 30 -25 9 -35 24 -23 18 15
-4 27 -8 30 -38 30 -19 0 -34 -4 -34 -10z" />
        <path d="M230 300 c0 -39 1 -40 35 -40 19 0 35 5 35 10 0 6 -11 10 -25 10 -21
0 -25 5 -25 30 0 17 -4 30 -10 30 -5 0 -10 -18 -10 -40z" />
        <path d="M440 310 c0 -28 -3 -30 -35 -30 -19 0 -35 -4 -35 -10 0 -5 20 -10 45
-10 l45 0 0 40 c0 22 -4 40 -10 40 -5 0 -10 -13 -10 -30z" />
        <path d="M740 310 c0 -27 -3 -30 -30 -30 -16 0 -30 -4 -30 -10 0 -5 18 -10 40
-10 l40 0 0 40 c0 22 -4 40 -10 40 -5 0 -10 -13 -10 -30z" />
        <path d="M510 291 c0 -41 0 -41 39 -41 22 0 43 5 46 10 4 6 -8 10 -29 10 -31
0 -36 3 -36 24 0 14 -4 28 -10 31 -6 4 -10 -10 -10 -34z" />
    </g>
</svg>
